<svg width="70" height="71" viewBox="0 0 70 71" fill="none" xmlns="http://www.w3.org/2000/svg">
<path d="M62.6202 31.8617C62.5911 31.8617 62.5911 31.8617 62.6202 31.8617L57.3119 26.5697V18.8218C57.3119 15.7812 54.8327 13.296 51.7702 13.296H44.0702L38.7619 7.97482C36.7494 5.95745 33.2494 5.95745 31.2369 7.97482L25.9286 13.296H18.2286C15.1661 13.296 12.687 15.7812 12.687 18.8218V26.5697L7.37861 31.8617C5.30778 33.9667 5.30776 37.3583 7.40776 39.4341L12.687 44.7261V52.4739C12.687 55.5438 15.1661 58.029 18.2286 58.029H25.9286L31.2369 63.3209C32.2286 64.3443 33.5702 64.8998 34.9994 64.8998C36.4286 64.8998 37.7702 64.3443 38.7619 63.3209L44.0702 58.029H51.7702C54.8327 58.029 57.3119 55.5438 57.3119 52.4739V44.7261L62.6202 39.4341C64.6911 37.3583 64.6911 33.9667 62.6202 31.8617ZM44.0994 48.3222C42.0869 48.3222 40.4244 46.6557 40.4244 44.6091C40.4244 42.5917 42.0869 40.9252 44.0994 40.9252C46.1411 40.9252 47.8036 42.5917 47.8036 44.6091C47.8036 46.6557 46.1411 48.3222 44.0994 48.3222ZM26.1619 22.9151C28.1744 22.9151 29.8369 24.5816 29.8369 26.6282C29.8369 28.6456 28.1744 30.3121 26.1619 30.3121C24.1203 30.3121 22.4578 28.6456 22.4578 26.6282C22.4578 24.5816 24.1203 22.9151 26.1619 22.9151ZM26.3369 41.2176L40.5703 26.979C41.4161 26.1312 42.7869 26.1312 43.6619 26.979C44.5077 27.8269 44.5077 29.2303 43.6619 30.0782L29.4286 44.3167C29.0202 44.7553 28.4661 44.96 27.8827 44.96C27.3286 44.96 26.7744 44.7553 26.3369 44.3167C25.4911 43.4689 25.4911 42.0655 26.3369 41.2176Z" fill="white"/>
</svg>
