<svg width="56" height="50" viewBox="0 0 56 50" fill="none" xmlns="http://www.w3.org/2000/svg">
<path d="M2.73712 49.9971C1.25215 50.0717 -0.975319 48.6818 0.465986 46.1387L26.0162 1.06522C27.7283 -0.863996 29.2919 0.26138 29.8597 1.06522L35.9743 11.939C38.1144 15.7974 38.7506 17.5512 37.0662 20.5328C32.6404 28.3665 23.483 44.5953 22.2601 46.8402C21.0372 49.0852 18.1692 49.8802 16.888 49.9971C12.7534 49.9679 4.13474 49.927 2.73712 49.9971Z" fill="white"/>
<path d="M46.7622 31.0557C45.0151 28.3548 43.1516 29.9304 42.4383 31.0557L33.6595 46.2702C32.3667 49.1115 34.5475 49.9094 35.7996 49.9533H53.1825C56.2572 49.9533 56.2107 47.7318 55.803 46.621C53.5173 42.558 48.5092 33.7566 46.7622 31.0557Z" fill="white"/>
</svg>
