<svg width="70" height="72" viewBox="0 0 70 72" fill="none" xmlns="http://www.w3.org/2000/svg">
<path d="M25.7826 34.7505C31.8493 34.7505 36.7785 29.8094 36.7785 23.728C36.7785 17.6467 31.8493 12.7056 25.7826 12.7056C19.716 12.7056 14.7868 17.6467 14.7868 23.728C14.7868 29.8094 19.716 34.7505 25.7826 34.7505Z" fill="white"/>
<path d="M47.1331 51.9719V57.0007C47.1331 58.1994 46.1706 59.1935 44.9456 59.1935H8.02051C6.82468 59.1935 5.83301 58.1994 5.83301 57.0007V51.9719C5.83301 44.9257 11.5497 39.1952 18.5788 39.1952H34.3872C35.8163 39.1952 37.1872 39.4291 38.4705 39.8969C38.4705 39.8969 38.4705 39.8676 38.4997 39.8969C43.5164 41.5926 47.1331 46.3583 47.1331 51.9719Z" fill="white"/>
<path d="M47.1331 51.9719V57.0007C47.1331 58.1994 46.1706 59.1935 44.9456 59.1935H8.02051C6.82468 59.1935 5.83301 58.1994 5.83301 57.0007V51.9719C5.83301 44.9257 11.5497 39.1952 18.5788 39.1952H34.3872C35.8163 39.1952 37.1872 39.4291 38.4705 39.8969C38.4705 39.8969 38.4705 39.8676 38.4997 39.8969C43.5164 41.5926 47.1331 46.3583 47.1331 51.9719Z" fill="white"/>
<path d="M64.1661 49.4578V53.5802C64.1661 54.545 63.3786 55.3344 62.4161 55.3344H51.5079V51.9722C51.5079 49.0192 50.7495 46.2125 49.437 43.7858C48.8829 42.7917 48.2704 41.8561 47.5704 41.0083C47.0746 40.4527 46.5787 39.8972 46.0537 39.4294H54.162C54.4829 39.4294 54.7745 39.4294 55.0662 39.4879C55.4454 39.5171 55.8245 39.5756 56.2037 39.6633C58.4203 40.1311 60.3453 41.3591 61.7745 42.9964C62.0078 43.2595 62.2412 43.5519 62.4453 43.8735C62.4745 43.8735 62.4745 43.8735 62.4453 43.9027C62.9995 44.7214 63.437 45.5985 63.7287 46.5633C63.8162 46.8849 63.9036 47.2065 63.962 47.5281C64.1078 48.1421 64.1661 48.7853 64.1661 49.4578Z" fill="white"/>
<path d="M47.7748 34.3415C52.5912 34.3415 56.4956 30.4276 56.4956 25.5996C56.4956 20.7715 52.5912 16.8577 47.7748 16.8577C42.9584 16.8577 39.054 20.7715 39.054 25.5996C39.054 30.4276 42.9584 34.3415 47.7748 34.3415Z" fill="white"/>
</svg>
